<?xml version="1.0" encoding="UTF-8"?>
<svg id="_レイヤー_2" data-name="レイヤー 2" xmlns="http://www.w3.org/2000/svg" xmlns:xlink="http://www.w3.org/1999/xlink" viewBox="0 0 597.7272949 33.9147949">
  <defs>
    <style>
      .cls-1 {
        filter: url(#drop-shadow-1);
      }

      .cls-2 {
        fill: #fff;
        stroke-width: 0px;
      }
    </style>
    <filter id="drop-shadow-1" filterUnits="userSpaceOnUse">
      <feOffset dx="5.1908934" dy="5.1908934"/>
      <feGaussianBlur result="blur" stdDeviation="5.1908934"/>
      <feFlood flood-color="#000" flood-opacity="1"/>
      <feComposite in2="blur" operator="in"/>
      <feComposite in="SourceGraphic"/>
    </filter>
  </defs>
  <g id="_レイヤー_1-2" data-name="レイヤー 1">
    <g class="cls-1">
      <path class="cls-2" d="m15.8325195,20.7641602c0,4.152832,0,7.5703125.2163086,9.387207.1298828,1.2543945.3894043,2.2060547,1.6872559,2.3791504.6054688.0866699,1.5571289.1730957,1.9465332.1730957.2595215,0,.3461914.1296387.3461914.2595215,0,.2163086-.2163086.3461914-.6923828.3461914-2.3791504,0-5.1044922-.1298828-5.3208008-.1298828s-2.9414062.1298828-4.2392578.1298828c-.4758301,0-.6921387-.0866699-.6921387-.3461914,0-.1298828.0864258-.2595215.3461914-.2595215.3891602,0,.9084473-.0864258,1.2976074-.1730957.8652344-.1730957,1.081543-1.1247559,1.2546387-2.3791504.2163086-1.8168945.2163086-5.234375.2163086-9.387207V2.4658203c-2.119873.0432129-4.2827148.0432129-6.4023438.0864258-2.6821289.0432129-3.7202148.3461914-4.4123535,1.3842773-.4758301.7353516-.6057129,1.0383301-.7353516,1.3410645-.1298828.3461914-.2597656.4326172-.4326172.4326172-.1298828,0-.2163086-.1298828-.2163086-.3894043C0,4.8881836.8649902,1.1679688.9516602.8220215c.0864258-.2595215.2595215-.8220215.4326172-.8220215.3027344,0,.7353516.4326172,1.9033203.519043,1.2543945.1298828,2.8984375.2163086,3.4174805.2163086h16.2219238c1.3842773,0,2.3791504-.0864258,3.0712891-.2163086.6489258-.0864258,1.0383301-.2160645,1.2114258-.2160645.2163086,0,.2163086.2595215.2163086.519043,0,1.2976074-.1298828,4.2824707-.1298828,4.7583008,0,.3894043-.1298828.5625-.3027344.5625-.2163086,0-.3029785-.1298828-.3461914-.7353516,0-.1730957-.0432129-.3029785-.0432129-.4758301-.1298828-1.2978516-1.1679688-2.2927246-5.3208008-2.3793945-1.8168945-.0432129-3.6337891-.0432129-5.4506836-.0864258v18.2983398Z"/>
      <path class="cls-2" d="m31.5776367,16.9143066c0-7.0080566,5.1044922-16.9143066,17.0439453-16.9143066,9.7331543,0,17.0007324,6.1428223,17.0007324,16.2219238,0,9.6899414-6.8349609,17.6928711-17.2602539,17.6928711-11.8530273,0-16.7844238-9.2141113-16.7844238-17.0004883Zm29.8918457.519043c0-10.3820801-6.315918-15.9624023-13.1506348-15.9624023-7.2243652,0-12.6315918,4.7583008-12.6315918,14.2319336,0,10.0793457,6.0561523,16.5681152,13.8427734,16.5681152,3.8933105,0,11.9394531-2.2495117,11.9394531-14.8376465Z"/>
      <path class="cls-2" d="m79.5500488,15.9191895c1.3410645-1.2976074,7.2243652-7.4836426,9.8630371-10.2089844,2.595459-2.6821289,2.7685547-3.1147461,2.7685547-3.6337891,0-.3459473-.2163086-.6921387-.5622559-.8217773-.3029785-.1298828-.3894043-.2163086-.3894043-.3894043s.2595215-.2595215.6489258-.2595215c1.2543945,0,1.1247559.1296387,2.595459.1296387,1.3410645,0,3.8933105-.1296387,4.5854492-.1296387.6057129,0,.7353516.1296387.7353516.3027344s-.0864258.2595215-.4758301.3027344c-.8217773.0866699-1.6005859.2597656-2.2060547.5192871-1.081543.4326172-1.9035645.9516602-4.4990234,3.4606934-3.8066406,3.677002-8.7382812,8.5651855-9.8630371,9.8195801,2.7253418,2.9848633,10.5983887,10.987793,12.6315918,12.8911133,3.5471191,3.3310547,5.0612793,4.2827148,7.1376953,4.671875.3894043.0866699.8217773.1298828,1.2543945.1298828.3461914,0,.6057129.0864258.6057129.3027344s-.1730957.3029785-.6489258.3029785h-3.2011719c-3.7634277,0-4.7583008-.4760742-6.7915039-2.076416-2.595459-2.0332031-10.3820801-10.3820801-14.1889648-14.9243164v4.4555664c0,4.152832,0,7.5703125.2163086,9.387207.1298828,1.2543945.3894043,2.2060547,1.6872559,2.3791504.6054688.0866699,1.4707031.1730957,1.7302246.1730957.3894043,0,.519043.1730957.519043.3027344,0,.2163086-.1728516.3029785-.6486816.3029785-2.3793945,0-5.1047363-.1298828-5.3208008-.1298828-.2163086,0-2.7685547.1298828-4.0664062.1298828-.4758301,0-.6921387-.043457-.6921387-.3029785,0-.1296387.0864258-.3027344.4758301-.3027344.2595215,0,.7353516-.0432129,1.1247559-.1298828.8652344-.1728516,1.1247559-1.1679688,1.2976074-2.4223633.2163086-1.8168945.2163086-5.234375.2163086-9.387207v-7.6135254c0-6.748291,0-7.9594727-.0864258-9.34375-.0864258-1.4709473-.519043-2.2062988-1.4707031-2.4226074-.4758301-.1296387-1.2546387-.1730957-1.557373-.1730957-.3461914,0-.4758301-.0864258-.4758301-.2595215,0-.2595215.2163086-.3459473.6921387-.3459473,1.4274902,0,4.3259277.1296387,4.5422363.1296387.2160645,0,2.9414062-.1296387,4.2392578-.1296387.4758301,0,.6921387.0864258.6921387.3027344,0,.1730957-.0866699.2595215-.4758301.3027344-.4758301.043457-.519043.043457-.9516602.0866699-1.1679688.1296387-1.5141602.994873-1.6005859,2.5090332-.0866699,1.3842773-.0866699,2.595459-.0866699,9.34375v2.7685547Z"/>
      <path class="cls-2" d="m114.3288574,22.1052246c0-2.3359375-.4326172-3.2875977-.994873-4.5422363-.3027344-.6921387-6.0996094-10.2089844-7.6135254-12.4584961-1.081543-1.6005859-2.1628418-2.6818848-2.9416504-3.2011719-.6489258-.432373-1.4707031-.6921387-1.8601074-.6921387-.2163086,0-.4326172-.0864258-.4326172-.3027344,0-.1730957.1730957-.3027344.5625-.3027344.8217773,0,4.0661621.1296387,4.2824707.1296387.3027344,0,1.9467773-.1296387,3.6337891-.1296387.4758301,0,.5622559.1296387.5622559.3027344s-.2595215.2163086-.6486816.3894043c-.3461914.1730957-.5625.4326172-.5625.7785645,0,.519043.2163086,1.0383301.5625,1.6870117.6921387,1.2546387,7.1809082,12.4152832,7.9594727,13.6699219.8220215-1.8168945,6.3156738-11.2905273,7.1809082-12.7180176.5625-.9084473.7353516-1.6437988.7353516-2.2062988,0-.6057129-.1728516-1.081543-.6921387-1.2111816-.3891602-.1298828-.6486816-.2163086-.6486816-.4326172,0-.1730957.2595215-.2595215.6921387-.2595215,1.1245117,0,2.5087891.1296387,2.8549805.1296387.2595215,0,3.3742676-.1296387,4.1960449-.1296387.3027344,0,.5625.0864258.5625.2595215,0,.2163086-.2163086.3459473-.5625.3459473-.4758301,0-1.2976074.1730957-1.9899902.6057129-.8649902.519043-1.3408203,1.0383301-2.2924805,2.2062988-1.4277344,1.7302246-7.4838867,11.8959961-8.2624512,13.7561035-.6489258,1.557373-.6489258,2.8984375-.6489258,4.3259277v3.7202148c0,.6921387,0,2.5090332.1296387,4.3259277.0866699,1.2543945.4760742,2.2060547,1.7736816,2.3791504.6057129.0866699,1.557373.1730957,1.9467773.1730957.2595215,0,.3459473.1296387.3459473.2595215,0,.2163086-.2163086.3461914-.6921387.3461914-2.3791504,0-5.1044922-.1298828-5.3208008-.1298828s-2.9416504.1298828-4.2392578.1298828c-.4758301,0-.6921387-.0866699-.6921387-.3461914,0-.1298828.0864258-.2595215.3459473-.2595215.3894043,0,.9084473-.0864258,1.2978516-.1730957.8652344-.1730957,1.2543945-1.1247559,1.3410645-2.3791504.1296387-1.8168945.1296387-3.6337891.1296387-4.3259277v-3.7202148Z"/>
      <path class="cls-2" d="m132.8857422,16.9143066c0-7.0080566,5.1044922-16.9143066,17.0439453-16.9143066,9.7331543,0,17.0007324,6.1428223,17.0007324,16.2219238,0,9.6899414-6.8349609,17.6928711-17.2602539,17.6928711-11.8530273,0-16.7844238-9.2141113-16.7844238-17.0004883Zm29.8918457.519043c0-10.3820801-6.315918-15.9624023-13.1506348-15.9624023-7.2243652,0-12.6315918,4.7583008-12.6315918,14.2319336,0,10.0793457,6.0561523,16.5681152,13.8427734,16.5681152,3.8933105,0,11.9394531-2.2495117,11.9394531-14.8376465Z"/>
      <path class="cls-2" d="m190.0285645,20.5478516c0-15.6162109.0866699-9.9926758.0432129-18.3847656,0-1.6872559.1298828-2.1630859.4758301-2.1630859.3461914,0,1.081543.9516602,1.5141602,1.3842773.6489258.7353516,7.0944824,7.7001953,13.7563477,14.8376465,4.2824707,4.5854492,8.9978027,9.8630371,10.3820801,11.2905273l-.4758301-21.9753418c-.043457-2.8117676-.3461914-3.7634277-1.6872559-4.1096191-.7785645-.1728516-1.4707031-.2163086-1.8601074-.2163086-.4758301,0-.6054688-.1296387-.6054688-.3027344,0-.2595215.3459473-.3027344.8649902-.3027344,1.9467773,0,4.0231934.1296387,4.4990234.1296387s1.9033203-.1296387,3.677002-.1296387c.4758301,0,.7785645.0432129.7785645.3027344,0,.1730957-.1730957.2595215-.4758301.3027344-.3459473.043457-.6057129.0866699-1.1247559.1730957-1.2111816.2595215-1.513916.9084473-1.513916,3.8933105l-.0866699,25.2631836c0,2.8549805-.0864258,3.0712891-.3891602,3.0712891-.3461914,0-.8652344-.4758301-3.157959-2.7685547-.4758301-.4326172-6.7050781-6.791748-11.2905273-11.7231445-5.0180664-5.4072266-9.90625-10.8579102-11.2905273-12.4152832l.5622559,20.7209473c.0866699,3.5471191.5192871,4.671875,1.6872559,5.0180664.8217773.2163086,1.7734375.2595215,2.1628418.2595215.2163086,0,.3461914.0864258.3461914.2595215,0,.2595215-.2597656.3461914-.7788086.3461914-2.4655762,0-4.1960449-.1298828-4.5854492-.1298828-.3891602,0-2.2060547.1298828-4.152832.1298828-.4326172,0-.6921387-.043457-.6921387-.3461914,0-.1730957.1298828-.2595215.3461914-.2595215.3459473,0,1.1247559-.0432129,1.7736816-.2595215,1.0812988-.3027344,1.2976074-1.557373,1.2976074-5.4938965v-6.4023438Z"/>
      <path class="cls-2" d="m234.4104004,20.5478516c-.2163086,0-.3459473.1298828-.4326172.3461914l-2.595459,7.6567383c-.3894043,1.081543-.6057129,2.1196289-.6057129,2.8981934,0,.8652344.8220215,1.2546387,1.557373,1.2546387h.3894043c.4326172,0,.5622559.0864258.5622559.2595215,0,.2595215-.3894043.3461914-.7785645.3461914-1.0383301,0-2.7685547-.1298828-3.2443848-.1298828s-2.8552246.1298828-4.8881836.1298828c-.5625,0-.8220215-.0866699-.8220215-.3461914,0-.1730957.2163086-.2595215.6057129-.2595215.3027344,0,.6921387-.0432129,1.0380859-.0864258,1.9899902-.2597656,2.8549805-1.9035645,3.6337891-4.0664062l9.8195801-26.8635254c.5192871-1.4277344.6921387-1.6872559.9519043-1.6872559.2595215,0,.432373.2163086.9516602,1.557373.6486816,1.6437988,7.4404297,19.5097656,10.0791016,26.0849609,1.557373,3.8500977,2.8120117,4.5422363,3.7202148,4.8017578.6489258.2163086,1.3410645.2595215,1.6872559.2595215.2595215,0,.4758301.0432129.4758301.2595215,0,.2595215-.3894043.3461914-.8652344.3461914-.6489258,0-3.8066406,0-6.7915039-.0866699-.8220215-.0432129-1.2978516-.0432129-1.2978516-.3027344,0-.1730957.1298828-.2595215.3027344-.3027344.2595215-.0866699.5192871-.4758301.2595215-1.1682129l-4.0229492-10.6416016c-.0864258-.1728516-.1730957-.2595215-.3894043-.2595215h-9.3005371Zm8.7382812-1.557373c.2163086,0,.2163086-.1296387.1730957-.3027344l-4.1096191-11.6796875c-.2163086-.6489258-.4326172-.6489258-.6489258,0l-3.8068848,11.6796875c-.0864258.2163086,0,.3027344.1298828.3027344h8.2624512Z"/>
      <path class="cls-2" d="m271.9145508,20.7641602c0,4.152832,0,7.5703125.2163086,9.387207.1298828,1.2543945.3894043,2.2060547,1.6872559,2.3791504.6054688.0866699,1.5571289.1730957,1.9465332.1730957.2595215,0,.3461914.1296387.3461914.2595215,0,.2163086-.2163086.3461914-.6923828.3461914-2.3791504,0-5.1044922-.1298828-5.3208008-.1298828s-2.9414062.1298828-4.2392578.1298828c-.4758301,0-.6921387-.0866699-.6921387-.3461914,0-.1298828.0864258-.2595215.3461914-.2595215.3891602,0,.9084473-.0864258,1.2976074-.1730957.8652344-.1730957,1.081543-1.1247559,1.2546387-2.3791504.2163086-1.8168945.2163086-5.234375.2163086-9.387207V2.4658203c-2.119873.0432129-4.2827148.0432129-6.4023438.0864258-2.6821289.0432129-3.7202148.3461914-4.4123535,1.3842773-.4758301.7353516-.6057129,1.0383301-.7353516,1.3410645-.1298828.3461914-.2597656.4326172-.4326172.4326172-.1298828,0-.2163086-.1298828-.2163086-.3894043,0-.4326172.8649902-4.152832.9516602-4.4987793.0864258-.2595215.2595215-.8220215.4326172-.8220215.3027344,0,.7353516.4326172,1.9033203.519043,1.2543945.1298828,2.8984375.2163086,3.4174805.2163086h16.2219238c1.3842773,0,2.3791504-.0864258,3.0712891-.2163086.6489258-.0864258,1.0383301-.2160645,1.2114258-.2160645.2163086,0,.2163086.2595215.2163086.519043,0,1.2976074-.1298828,4.2824707-.1298828,4.7583008,0,.3894043-.1298828.5625-.3027344.5625-.2163086,0-.3029785-.1298828-.3461914-.7353516,0-.1730957-.0432129-.3029785-.0432129-.4758301-.1298828-1.2978516-1.1679688-2.2927246-5.3208008-2.3793945-1.8168945-.0432129-3.6337891-.0432129-5.4506836-.0864258v18.2983398Z"/>
      <path class="cls-2" d="m293.8457031,19.2067871c0,6.229248,1.3842773,8.911377,3.2443848,10.6850586,2.1196289,1.9897461,4.0661621,2.3791504,6.5319824,2.3791504,2.638916,0,5.234375-1.2543945,6.791748-3.114502,1.9897461-2.4658203,2.5090332-6.1428223,2.5090332-10.5983887v-5.4074707c0-6.748291,0-7.9594727-.0866699-9.34375-.0864258-1.4709473-.4326172-2.1630859-1.8601074-2.4658203-.3459473-.0864258-1.081543-.1298828-1.4707031-.1298828-.1730957,0-.3461914-.0864258-.3461914-.2595215,0-.2595215.2163086-.3459473.6921387-.3459473,1.9467773,0,4.3259277.1296387,4.5854492.1296387.3027344,0,2.3359375-.1296387,3.6337891-.1296387.4758301,0,.6921387.0864258.6921387.3459473,0,.1730957-.1730957.2595215-.3461914.2595215-.3027344,0-.5622559.043457-1.0812988.1298828-1.1679688.2595215-1.5141602.9516602-1.6005859,2.4658203-.0866699,1.3842773-.0866699,2.595459-.0866699,9.34375v4.6286621c0,4.6721191-.519043,9.8630371-3.9797363,12.9343262-3.114502,2.7685547-6.3591309,3.2011719-8.911377,3.2011719-1.4707031,0-5.8398438-.1730957-8.9111328-3.0712891-2.1196289-2.0332031-3.7636719-5.0612793-3.7636719-11.3769531v-6.315918c0-6.748291,0-7.9594727-.0864258-9.34375-.0864258-1.4709473-.4326172-2.1630859-1.8601074-2.4658203-.3459473-.0864258-1.081543-.1298828-1.4707031-.1298828-.1730957,0-.3461914-.0864258-.3461914-.2595215,0-.2595215.2163086-.3459473.6921387-.3459473,1.9467773,0,4.5854492.1296387,4.9748535.1296387.3891602,0,2.9848633-.1296387,4.2824707-.1296387.4758301,0,.6921387.0864258.6921387.3459473,0,.1730957-.1728516.2595215-.3459473.2595215-.3027344,0-.5625.043457-1.081543.1298828-1.1679688.1730957-1.513916.9516602-1.6005859,2.4658203-.0864258,1.3842773-.0864258,2.595459-.0864258,9.34375v6.0561523Z"/>
      <path class="cls-2" d="m328.4941406,13.1506348c0-6.748291,0-7.9594727-.0864258-9.34375-.0864258-1.4709473-.4326172-2.1630859-1.8601074-2.4658203-.3461914-.0864258-1.081543-.1298828-1.4707031-.1298828-.1730957,0-.3461914-.0864258-.3461914-.2595215,0-.2595215.2163086-.3459473.6921387-.3459473,1.9467773,0,4.671875.1296387,4.8881836.1296387.4758301,0,3.7636719-.1296387,5.1044922-.1296387,2.7253418,0,5.6237793.2595215,7.9165039,1.9033203,1.0812988.7785645,2.9848633,2.8984375,2.9848633,5.8833008,0,3.2009277-1.3410645,6.4020996-5.234375,9.9926758,3.5471191,4.5422363,6.4887695,8.3920898,8.9978027,11.0742188,2.3359375,2.4658203,4.1960449,2.9416504,5.2775879,3.114502.8217773.1298828,1.4274902.1298828,1.6870117.1298828.2163086,0,.3894043.1296387.3894043.2595215,0,.2595215-.2595215.3461914-1.0383301.3461914h-3.0712891c-2.4223633,0-3.5039062-.2163086-4.6286621-.8220215-1.8601074-.994873-3.3742676-3.114502-5.8398438-6.3591309-1.8168945-2.3791504-3.8500977-5.2773438-4.715332-6.4020996-.1730957-.1730957-.3027344-.2595215-.5622559-.2595215l-5.3208008-.0866699c-.2163086,0-.3029785.1298828-.3029785.3461914v1.0380859c0,4.152832,0,7.5703125.2163086,9.387207.1298828,1.2543945.3894043,2.2060547,1.6872559,2.3791504.6054688.0866699,1.5571289.1730957,1.9465332.1730957.2595215,0,.3461914.1296387.3461914.2595215,0,.2163086-.2163086.3461914-.6921387.3461914-2.3793945,0-5.1047363-.1298828-5.3208008-.1298828-.043457,0-2.7685547.1298828-4.0664062.1298828-.4758301,0-.6921387-.0866699-.6921387-.3461914,0-.1298828.0864258-.2595215.3459473-.2595215.3894043,0,.9084473-.0864258,1.2978516-.1730957.8652344-.1730957,1.081543-1.1247559,1.2543945-2.3791504.2163086-1.8168945.2163086-5.234375.2163086-9.387207v-7.6135254Zm3.4606934,3.7636719c0,.2160645.0866699.3891602.3029785.519043.6489258.3891602,2.6386719.6921387,4.5419922.6921387,1.0383301,0,2.2495117-.1298828,3.2443848-.8220215,1.5141602-1.0380859,2.638916-3.3740234,2.638916-6.6618652,0-5.4072266-2.8549805-8.6516113-7.4838867-8.6516113-1.2976074,0-2.4655762.1296387-2.8981934.2595215-.2163086.0864258-.3461914.2595215-.3461914.519043v14.145752Z"/>
      <path class="cls-2" d="m361.1101074,13.1506348c0-6.748291,0-7.9594727-.0864258-9.34375-.0864258-1.4709473-.4326172-2.1630859-1.8601074-2.4658203-.3027344-.0864258-.8652344-.0864258-1.2543945-.1298828-.3029785-.0432129-.5625-.0864258-.5625-.2595215,0-.2595215.2163086-.3459473.6921387-.3459473.994873,0,2.1628418,0,4.8881836.1296387.3029785,0,8.911377,0,9.90625-.0432129.9516602-.0432129,1.7304688-.1296387,1.9899902-.2595215.2595215-.1296387.3459473-.1730957.4758301-.1730957.1296387,0,.1730957.1730957.1730957.3894043,0,.3027344-.2597656.8220215-.3461914,2.0332031-.0432129.6489258-.0864258,1.4707031-.1730957,2.595459-.0432129.4326172-.1728516.7353516-.3459473.7353516-.2595215,0-.3461914-.2163086-.3461914-.5622559,0-.5625-.0864258-1.081543-.2163086-1.4274902-.3027344-.9951172-1.2111816-1.4277344-3.114502-1.6005859-.7353516-.0866699-5.4506836-.1298828-5.9265137-.1298828-.1728516,0-.2595215.1298828-.2595215.4326172v11.9394531c0,.3027344.0432129.4326172.2595215.4326172.5625,0,5.8833008,0,6.8781738-.0866699,1.1679688-.0864258,1.7304688-.2163086,2.1628418-.7353516.2163086-.2595215.3461914-.4326172.5192871-.4326172.1296387,0,.2163086.0866699.2163086.3461914s-.2163086.994873-.3461914,2.4223633c-.1296387,1.3410645-.1296387,2.3359375-.1730957,2.9416504-.0432129.4326172-.1296387.6489258-.3027344.6489258-.2595215,0-.3027344-.3461914-.3027344-.6921387,0-.3894043-.0432129-.8220215-.1730957-1.2111816-.1730957-.6489258-.6921387-1.2546387-2.2495117-1.4277344-1.1679688-.1296387-5.4504395-.2163086-6.1860352-.2163086-.2160645,0-.3027344.1298828-.3027344.3029785v3.8066406c0,1.4709473-.0432129,6.4887695,0,7.3972168.0866699,1.7736816.3461914,2.7253418,1.4274902,3.157959.7353516.3027344,1.9035645.3894043,3.5905762.3894043,1.2976074,0,2.7253418-.043457,3.8933105-.3894043,1.3842773-.4326172,1.8601074-1.3410645,2.2060547-3.2011719.0866699-.4758301.1730957-.6489258.3894043-.6489258.2595215,0,.2595215.3461914.2595215.6489258,0,.3461914-.3459473,3.2875977-.5622559,4.1960449-.3029785,1.1247559-.6489258,1.1247559-2.3359375,1.1247559-3.2011719,0-4.6286621-.0864258-6.315918-.1296387-1.7302246-.043457-3.7202148-.1298828-5.4072266-.1298828-1.0383301,0-2.076416.1730957-3.2011719.1298828-.4758301,0-.6921387-.0866699-.6921387-.3461914,0-.1298828.2163086-.2163086.4758301-.2595215.4326172-.0432129.6921387-.0432129.994873-.1298828.9084473-.2163086,1.4709473-.8217773,1.557373-4.0661621.0432129-1.6872559.0864258-3.8933105.0864258-7.7434082v-7.6135254Z"/>
      <path class="cls-2" d="m425.7368164,29.6323242c0,1.9465332-.0432129,2.032959-.5622559,2.3359375-2.7685547,1.4707031-6.6618652,1.9465332-9.1708984,1.9465332-3.2875977,0-9.4304199-.4326172-14.2321777-4.6286621-2.6386719-2.2927246-5.1477051-6.9213867-5.1477051-12.3286133,0-6.9213867,3.3742676-11.8098145,7.2241211-14.2321777,3.8933105-2.4223633,8.1760254-2.7253418,11.5068359-2.7253418,2.7253418,0,5.7966309.5625,6.6186523.7353516.9084473.2163086,2.4223633.3894043,3.5039062.4326172.4326172.0432129.519043.2163086.519043.3894043,0,.6057129-.3027344,1.8168945-.3027344,6.1428223,0,.6921387-.0864258.9084473-.3894043.9084473-.2163086,0-.2595215-.2597656-.3027344-.6489258-.0432129-.6057129-.2595215-1.8168945-.9084473-2.8552246-1.081543-1.6437988-4.5854492-3.5039062-10.1657715-3.5039062-2.7253418,0-5.9697266.2595215-9.2573242,2.8552246-2.5090332,1.9897461-4.2827148,5.9262695-4.2827148,10.9875488,0,6.0996094,3.0715332,10.5119629,4.5854492,11.982666,3.4174805,3.3310547,7.3540039,4.6286621,11.3337402,4.6286621,1.557373,0,3.8068848-.2595215,4.9316406-.9084473.5622559-.3027344.8649902-.7785645.8649902-1.513916v-7.3540039c0-3.5039062-.2163086-3.9797363-1.9465332-4.4558105-.3459473-.0864258-1.081543-.1296387-1.4707031-.1296387-.1730957,0-.3461914-.0866699-.3461914-.2595215,0-.2595215.2163086-.3461914.6921387-.3461914,1.9467773,0,4.671875.1298828,4.8881836.1298828s2.9416504-.1298828,4.239502-.1298828c.4758301,0,.6921387.0866699.6921387.3461914,0,.1728516-.1730957.2595215-.3461914.2595215-.3027344,0-.5622559.0432129-1.081543.1296387-1.1679688.2163086-1.513916.9519043-1.6003418,2.4658203-.0866699,1.3842773-.0866699,2.6821289-.0866699,4.4990234v4.8449707Z"/>
      <path class="cls-2" d="m440.8330078,20.5478516c-.2163086,0-.3461914.1298828-.4326172.3461914l-2.595459,7.6567383c-.3894043,1.081543-.6057129,2.1196289-.6057129,2.8981934,0,.8652344.8220215,1.2546387,1.557373,1.2546387h.3894043c.4326172,0,.5622559.0864258.5622559.2595215,0,.2595215-.3894043.3461914-.7785645.3461914-1.0383301,0-2.7685547-.1298828-3.2443848-.1298828s-2.8552246.1298828-4.8884277.1298828c-.5622559,0-.8217773-.0866699-.8217773-.3461914,0-.1730957.2163086-.2595215.6057129-.2595215.3027344,0,.6921387-.0432129,1.0380859-.0864258,1.9899902-.2597656,2.8549805-1.9035645,3.6337891-4.0664062l9.8195801-26.8635254c.5192871-1.4277344.6921387-1.6872559.9516602-1.6872559.2597656,0,.4326172.2163086.9519043,1.557373.6486816,1.6437988,7.4404297,19.5097656,10.0791016,26.0849609,1.557373,3.8500977,2.8117676,4.5422363,3.7202148,4.8017578.6489258.2163086,1.3410645.2595215,1.6872559.2595215.2595215,0,.4758301.0432129.4758301.2595215,0,.2595215-.3894043.3461914-.8652344.3461914-.6489258,0-3.8066406,0-6.7915039-.0866699-.8220215-.0432129-1.2978516-.0432129-1.2978516-.3027344,0-.1730957.1298828-.2595215.3027344-.3027344.2595215-.0866699.5192871-.4758301.2595215-1.1682129l-4.0229492-10.6416016c-.0864258-.1728516-.1730957-.2595215-.3894043-.2595215h-9.3005371Zm8.7382812-1.557373c.2163086,0,.2163086-.1296387.1730957-.3027344l-4.1096191-11.6796875c-.2163086-.6489258-.4326172-.6489258-.6489258,0l-3.8066406,11.6796875c-.0866699.2163086,0,.3027344.1296387.3027344h8.2624512Z"/>
      <path class="cls-2" d="m469.1230469,13.1506348c0-6.748291,0-7.9594727-.0864258-9.34375-.0864258-1.4709473-.4326172-2.1630859-1.8601074-2.4658203-.3461914-.0864258-1.081543-.1298828-1.4707031-.1298828-.1730957,0-.3461914-.0864258-.3461914-.2595215,0-.2595215.2163086-.3459473.6921387-.3459473,1.9467773,0,4.671875.1296387,4.8881836.1296387.4758301,0,3.7636719-.1296387,5.1044922-.1296387,2.7253418,0,5.6237793.2595215,7.9165039,1.9033203,1.0812988.7785645,2.9848633,2.8984375,2.9848633,5.8833008,0,3.2009277-1.3410645,6.4020996-5.234375,9.9926758,3.5471191,4.5422363,6.4887695,8.3920898,8.9978027,11.0742188,2.3359375,2.4658203,4.1960449,2.9416504,5.2775879,3.114502.8217773.1298828,1.4274902.1298828,1.6870117.1298828.2163086,0,.3894043.1296387.3894043.2595215,0,.2595215-.2595215.3461914-1.0383301.3461914h-3.0712891c-2.4223633,0-3.5039062-.2163086-4.6286621-.8220215-1.8601074-.994873-3.3742676-3.114502-5.8398438-6.3591309-1.8168945-2.3791504-3.8500977-5.2773438-4.715332-6.4020996-.1730957-.1730957-.3027344-.2595215-.5622559-.2595215l-5.3208008-.0866699c-.2163086,0-.3029785.1298828-.3029785.3461914v1.0380859c0,4.152832,0,7.5703125.2163086,9.387207.1298828,1.2543945.3894043,2.2060547,1.6872559,2.3791504.6054688.0866699,1.5571289.1730957,1.9465332.1730957.2595215,0,.3461914.1296387.3461914.2595215,0,.2163086-.2163086.3461914-.6921387.3461914-2.3793945,0-5.1047363-.1298828-5.3208008-.1298828-.043457,0-2.7685547.1298828-4.0664062.1298828-.4758301,0-.6921387-.0866699-.6921387-.3461914,0-.1298828.0864258-.2595215.3459473-.2595215.3894043,0,.9084473-.0864258,1.2978516-.1730957.8652344-.1730957,1.081543-1.1247559,1.2543945-2.3791504.2163086-1.8168945.2163086-5.234375.2163086-9.387207v-7.6135254Zm3.4606934,3.7636719c0,.2160645.0866699.3891602.3029785.519043.6489258.3891602,2.6386719.6921387,4.5419922.6921387,1.0383301,0,2.2495117-.1298828,3.2443848-.8220215,1.5141602-1.0380859,2.638916-3.3740234,2.638916-6.6618652,0-5.4072266-2.8549805-8.6516113-7.4838867-8.6516113-1.2976074,0-2.4655762.1296387-2.8981934.2595215-.2163086.0864258-.3461914.2595215-.3461914.519043v14.145752Z"/>
      <path class="cls-2" d="m501.7390137,13.1506348c0-6.748291,0-7.9594727-.0864258-9.34375-.0864258-1.4709473-.3027344-2.1630859-1.7302246-2.4658203-.3461914-.0864258-1.081543-.1298828-1.4709473-.1298828-.3027344,0-.4758301-.0864258-.4758301-.2595215,0-.2595215.2163086-.3459473.6921387-.3459473,1.9465332,0,4.671875.1296387,4.8881836.1296387.5192871,0,3.2443848-.1296387,5.8400879-.1296387,4.2824707,0,12.1987305-.3894043,17.3466797,4.9313965,2.1628418,2.2495117,4.1960449,5.8400879,4.1960449,10.987793,0,5.4504395-2.2495117,9.6467285-4.671875,12.1989746-1.8601074,1.9465332-5.753418,4.9746094-13.1074219,4.9746094-1.8601074,0-4.152832-.1296387-6.0129395-.2595215-1.9033203-.1296387-3.3742676-.2595215-3.5905762-.2595215-.0864258,0-.8217773,0-1.7302246.0432129-.8652344,0-1.8601074.0866699-2.5090332.0866699-.4758301,0-.6921387-.0866699-.6921387-.3461914,0-.1298828.0864258-.2595215.4326172-.2595215.4758301-.0432129.8217773-.0864258,1.2111816-.1730957.8652344-.1730957,1.081543-1.1247559,1.2543945-2.3791504.2163086-1.8168945.2163086-5.234375.2163086-9.387207v-7.6135254Zm3.6337891,4.671875c0,4.5854492.0432129,8.5654297.0866699,9.387207.0432129,1.081543.1296387,2.8117676.4758301,3.2875977.5622559.8220215,2.2492676,1.7304688,7.3537598,1.7304688,4.0231934,0,7.7434082-1.4707031,10.2956543-4.0231934,2.2495117-2.2060547,3.4606934-6.3588867,3.4606934-10.338623,0-5.4938965-2.3791504-9.0412598-4.152832-10.9013672-4.0664062-4.2824707-8.9978027-4.8881836-14.1455078-4.8881836-.8652344,0-2.4658203.1298828-2.8117676.3027344-.3894043.1730957-.5192871.3894043-.5192871.8652344-.0432129,1.4709473-.0432129,5.8833008-.0432129,9.2141113v5.3640137Z"/>
      <path class="cls-2" d="m541.4057617,13.1506348c0-6.748291,0-7.9594727-.0864258-9.34375-.0864258-1.4709473-.4326172-2.1630859-1.8601074-2.4658203-.3027344-.0864258-.8652344-.0864258-1.2546387-.1298828-.3027344-.0432129-.5622559-.0864258-.5622559-.2595215,0-.2595215.2163086-.3459473.6921387-.3459473.994873,0,2.1628418,0,4.8881836.1296387.3029785,0,8.911377,0,9.90625-.0432129.9516602-.0432129,1.7304688-.1296387,1.9899902-.2595215.2595215-.1296387.3459473-.1730957.4758301-.1730957.1296387,0,.1730957.1730957.1730957.3894043,0,.3027344-.2595215.8220215-.3461914,2.0332031-.0432129.6489258-.0864258,1.4707031-.1730957,2.595459-.0432129.4326172-.1728516.7353516-.3459473.7353516-.2595215,0-.3461914-.2163086-.3461914-.5622559,0-.5625-.0864258-1.081543-.2163086-1.4274902-.3027344-.9951172-1.2111816-1.4277344-3.114502-1.6005859-.7353516-.0866699-5.4506836-.1298828-5.9265137-.1298828-.1730957,0-.2595215.1298828-.2595215.4326172v11.9394531c0,.3027344.0432129.4326172.2595215.4326172.5625,0,5.8833008,0,6.8781738-.0866699,1.1679688-.0864258,1.7304688-.2163086,2.1628418-.7353516.2163086-.2595215.3461914-.4326172.5192871-.4326172.1296387,0,.2163086.0866699.2163086.3461914s-.2163086.994873-.3461914,2.4223633c-.1296387,1.3410645-.1296387,2.3359375-.1730957,2.9416504-.0432129.4326172-.1296387.6489258-.3027344.6489258-.2595215,0-.3027344-.3461914-.3027344-.6921387,0-.3894043-.0432129-.8220215-.1730957-1.2111816-.1730957-.6489258-.6921387-1.2546387-2.2495117-1.4277344-1.1679688-.1296387-5.4504395-.2163086-6.1860352-.2163086-.2163086,0-.3027344.1298828-.3027344.3029785v3.8066406c0,1.4709473-.0432129,6.4887695,0,7.3972168.0864258,1.7736816.3461914,2.7253418,1.4274902,3.157959.7355957.3027344,1.9035645.3894043,3.5905762.3894043,1.2978516,0,2.7253418-.043457,3.8933105-.3894043,1.3842773-.4326172,1.8601074-1.3410645,2.2060547-3.2011719.0866699-.4758301.1730957-.6489258.3894043-.6489258.2595215,0,.2595215.3461914.2595215.6489258,0,.3461914-.3459473,3.2875977-.5622559,4.1960449-.3029785,1.1247559-.6489258,1.1247559-2.3359375,1.1247559-3.2011719,0-4.6289062-.0864258-6.315918-.1296387-1.7302246-.043457-3.7202148-.1298828-5.4072266-.1298828-1.0383301,0-2.076416.1730957-3.2011719.1298828-.4758301,0-.6921387-.0866699-.6921387-.3461914,0-.1298828.2163086-.2163086.4758301-.2595215.4326172-.0432129.6921387-.0432129.994873-.1298828.9084473-.2163086,1.4709473-.8217773,1.557373-4.0661621.0432129-1.6872559.0864258-3.8933105.0864258-7.7434082v-7.6135254Z"/>
      <path class="cls-2" d="m566.3647461,20.5478516c0-15.6162109.0866699-9.9926758.0432129-18.3847656,0-1.6872559.1298828-2.1630859.4758301-2.1630859.3461914,0,1.081543.9516602,1.5141602,1.3842773.6489258.7353516,7.0944824,7.7001953,13.7563477,14.8376465,4.2824707,4.5854492,8.9978027,9.8630371,10.3820801,11.2905273l-.4758301-21.9753418c-.043457-2.8117676-.3461914-3.7634277-1.6872559-4.1096191-.7785645-.1728516-1.4707031-.2163086-1.8601074-.2163086-.4758301,0-.6054688-.1296387-.6054688-.3027344,0-.2595215.3459473-.3027344.8649902-.3027344,1.9467773,0,4.0231934.1296387,4.4990234.1296387s1.9033203-.1296387,3.677002-.1296387c.4758301,0,.7785645.0432129.7785645.3027344,0,.1730957-.1730957.2595215-.4758301.3027344-.3459473.043457-.6057129.0866699-1.1247559.1730957-1.2111816.2595215-1.513916.9084473-1.513916,3.8933105l-.0866699,25.2631836c0,2.8549805-.0864258,3.0712891-.3891602,3.0712891-.3461914,0-.8652344-.4758301-3.157959-2.7685547-.4758301-.4326172-6.7050781-6.791748-11.2905273-11.7231445-5.0180664-5.4072266-9.90625-10.8579102-11.2905273-12.4152832l.5622559,20.7209473c.0866699,3.5471191.5192871,4.671875,1.6872559,5.0180664.8217773.2163086,1.7734375.2595215,2.1628418.2595215.2163086,0,.3461914.0864258.3461914.2595215,0,.2595215-.2595215.3461914-.7788086.3461914-2.4655762,0-4.1960449-.1298828-4.5854492-.1298828-.3891602,0-2.2060547.1298828-4.152832.1298828-.432373,0-.6921387-.043457-.6921387-.3461914,0-.1730957.1298828-.2595215.3461914-.2595215.3459473,0,1.1247559-.0432129,1.7736816-.2595215,1.0812988-.3027344,1.2976074-1.557373,1.2976074-5.4938965v-6.4023438Z"/>
    </g>
  </g>
</svg>